# xmcd CD database file
#
# Track frame offsets:
#	183
#	3673
#	29043
#	52815
#	70803
#	94880
#	118883
#	135430
#	158415
#	174705
#	198030
#	202723
#	227940
#	247600
#
# Disc length: 3515 seconds
#
# Revision: 4
# Processed by: cddbd v1.5.2PL0 Copyright (c) Steve Scherf et al.
# Submitted via: CDex 1.81
#
DISCID=ae0db90e
DTITLE=Omar - Music
DYEAR=1991
DGENRE=Jazz
TTITLE0=Intro
TTITLE1=Music
TTITLE2=You've Got To Move
TTITLE3=Get To Know You Better
TTITLE4=Tomorrow
TTITLE5=Tasty Morsel
TTITLE6=Winner
TTITLE7=Your Loss, My Gain
TTITLE8=Don't Sell Yourself Short
TTITLE9=Who Chooses The Seasons (Duet)
TTITLE10=Interlude
TTITLE11=Last Request
TTITLE12=Walk In The Park
TTITLE13=In The Mist Of It
EXTD=YEAR: 1991
EXTT0=
EXTT1=
EXTT2=
EXTT3=
EXTT4=
EXTT5=
EXTT6=
EXTT7=
EXTT8=
EXTT9=
EXTT10=
EXTT11=
EXTT12=
EXTT13=
PLAYORDER=
